<svg width="168" height="119" viewBox="0 0 168 119" fill="none" xmlns="http://www.w3.org/2000/svg">
<path d="M87.203 117.998C81.229 117.998 75.7537 117.998 70 117.998C70 78.6934 70 39.6783 70 0.382187C70 -4.16338e-05 70 4.16529e-05 73.2064 0C90.8339 0.281111 108.76 -0.0488033 126.328 1.13481C140.13 2.06474 152.123 7.82937 159.089 20.7952C169.53 40.227 163.679 61.2192 144.07 74.6921C151.78 88.8791 159.509 103.101 167.602 117.993C156.235 117.993 145.504 118.108 134.783 117.837C133.554 117.806 132.015 115.826 131.24 114.41C125.901 104.661 120.381 94.984 115.652 84.9388C113.42 80.1993 110.554 76.754 105.706 77.5C104.706 77.6539 103.304 78 101.706 78C101.706 90.8217 101.844 104.694 101.844 117.998C96.852 117.998 92.2768 117.998 87.203 117.998ZM101.206 29C101.206 37.2329 101.48 46.3026 101.48 55.0427C107.983 54.6802 113.657 54.7235 119.222 53.9654C126.647 52.9537 130.331 48.433 130.525 41.1448C130.726 33.5762 127.119 28.398 119.845 27.166C114.643 26.2846 109.263 26.3297 103.96 26.2816C101.706 26.2816 101.206 26.5 101.206 29Z" fill="currentColor"/>
<path d="M60 0.00292969V39.0059C59.8338 39.0019 59.6671 39 59.5 39C48.1782 39 39 48.1782 39 59.5C39 70.8218 48.1782 80 59.5 80C59.6671 80 59.8338 79.9971 60 79.9932V117.996C59.8335 117.997 59.6668 118 59.5 118C26.6391 118 0 91.5848 0 59C0 26.4152 26.6391 0 59.5 0C59.6668 0 59.8335 0.00157066 60 0.00292969ZM14.1172 85.6592C18.3782 93.0357 24.3522 99.2796 31.4902 103.834L40.4189 86.7979C36.8526 84.2811 33.792 81.0959 31.4199 77.4238L14.1172 85.6592Z" fill="currentColor"/>
<path d="M59.5 53C59.6683 53 59.8349 53.0079 60 53.0205V65.9785C59.8349 65.9911 59.6683 66 59.5 66C55.9101 66 53 63.0899 53 59.5C53 55.9101 55.9101 53 59.5 53Z" fill="currentColor"/>
</svg>
